<?xml version="1.0" encoding="UTF-8" standalone="no"?>
<svg
   width="48"
   height="48"
   version="1.1"
   id="svg3"
   sodipodi:docname="trayicon_connect.svg"
   inkscape:version="1.4.3 (0d15f75042, 2025-12-25)"
   xmlns:inkscape="http://www.inkscape.org/namespaces/inkscape"
   xmlns:sodipodi="http://sodipodi.sourceforge.net/DTD/sodipodi-0.dtd"
   xmlns="http://www.w3.org/2000/svg"
   xmlns:svg="http://www.w3.org/2000/svg">
  <defs
     id="defs3" />
  <sodipodi:namedview
     id="namedview3"
     pagecolor="#000000"
     bordercolor="#000000"
     borderopacity="0.25"
     inkscape:showpageshadow="2"
     inkscape:pageopacity="0.0"
     inkscape:pagecheckerboard="0"
     inkscape:deskcolor="#d1d1d1"
     inkscape:zoom="17.824983"
     inkscape:cx="11.220207"
     inkscape:cy="32.903257"
     inkscape:window-width="2560"
     inkscape:window-height="1368"
     inkscape:window-x="0"
     inkscape:window-y="0"
     inkscape:window-maximized="1"
     inkscape:current-layer="g3" />
  <g
     id="g3"
     transform="matrix(0.77092078,0,0,0.77092078,5.4979015,6.6542826)">
    <path
       fill="#f9aa40"
       d="m 0,5 v 38 a 2,2 45 0 0 2,2 H 7 A 2,2 135 0 0 9,43 V 12 h 1 c 1.105,0 2.93,-0.014 3.946,0.403 1.6,0.658 2.993,2.05 3.651,3.65 C 18.014,17.07 18,18.896 18,20 v 23 a 2,2 45 0 0 2,2 h 5 a 2,2 135 0 0 2,-2 v -4 h 6 v 4 a 2,2 45 0 0 2,2 h 5 a 2,2 135 0 0 2,-2 v -4 h 4 a 2,2 135 0 0 2,-2 v -2 a 2,2 45 0 0 -2,-2 h -4 v -7 a 2,2 45 0 0 -2,-2 h -5 a 2,2 135 0 0 -2,2 v 7 H 27 V 20 C 27,18.895 26.979,17.098 26.758,16.018 25.908,11.854 22.624,4.154 13.995,3.117 12.9,2.985 11.105,3 10,3 H 2 A 2,2 135 0 0 0,5 Z"
       id="path2"
       style="fill:#ffffff;fill-opacity:1" />
    <circle
       cx="39"
       cy="9"
       r="9"
       fill="#1bc563"
       id="circle3" />
  </g>
</svg>
